<svg height="511pt" viewBox="-42 0 511 511.99764" width="511pt" xmlns="http://www.w3.org/2000/svg"><path d="m71.371094 225.328125-21.964844-21.964844c-8.011719-8.011719-8.011719-21 0-29.011719l21.964844-21.964843c8.011718-8.011719 21-8.011719 29.011718 0l21.964844 21.964843c8.011719 8.011719 8.011719 21 0 29.011719l-21.964844 21.964844c-8.011718 8.011719-21 8.011719-29.011718 0zm0 0" fill="#2eddda"/><path d="m138.480469 225.328125-21.964844-21.964844c-8.011719-8.011719-8.011719-21 0-29.011719l21.964844-21.964843c8.011719-8.011719 21.003906-8.011719 29.011719 0l21.964843 21.964843c8.011719 8.011719 8.011719 21 0 29.011719l-21.964843 21.964844c-8.007813 8.011719-21 8.011719-29.011719 0zm0 0" fill="#76e7e7"/><path d="m304.933594 83.660156 19.492187-62.238281-43.878906-13.742187-19.417969 62c-1.695312 5.417968-5.363281 10-10.28125 12.835937l-15.5625 8.992187c-16.550781 9.558594-28.90625 24.988282-34.617187 43.226563l-35.753907 114.175781 115.5 36.167969 36.007813-114.984375c5.558594-17.753906 4.4375-36.925781-3.160156-53.90625l-7.386719-16.515625c-2.257812-5.042969-2.589844-10.738281-.941406-16.011719zm0 0" fill="#fc64d8"/><path d="m312.78125 48.179688-39.332031-12.320313c-7.644531-2.394531-11.902344-10.53125-9.507813-18.179687 2.394532-7.644532 10.53125-11.902344 18.175782-9.507813l39.335937 12.320313c7.644531 2.394531 11.902344 10.53125 9.507813 18.179687-2.394532 7.644531-10.535157 11.898437-18.179688 9.507813zm0 0" fill="#ff8de4"/><path d="m200.671875 134.722656 115.503906 36.167969-26.289062 83.953125-115.5-36.164062zm0 0" fill="#f9ee80"/><path d="m318.015625 225.328125-21.964844-21.964844c-8.011719-8.011719-8.011719-21 0-29.011719l21.964844-21.964843c8.015625-8.011719 21.003906-8.011719 29.015625 0l21.964844 21.964843c8.011718 8.011719 8.011718 21 0 29.011719l-21.964844 21.964844c-8.011719 8.011719-21 8.011719-29.015625 0zm0 0" fill="#b0f0ef"/><path d="m43.394531 250.316406 33.875 200.230469c5.269531 31.152344 32.25 53.953125 63.84375 53.953125h149.191407c31.59375 0 58.574218-22.800781 63.84375-53.949219l33.875-200.234375zm0 0" fill="#889cb0"/><path d="m43.394531 250.316406 33.875 200.230469c5.269531 31.152344 32.25 53.953125 63.84375 53.953125h37.773438c-4.636719-8.933594-7.777344-20.261719-9.878907-31.144531-3.597656-18.652344 3.523438-37.9375 18.761719-49.277344 36.578125-27.214844 43.097657-80.113281 43.097657-80.113281l-26.230469-31.121094c25.671875-13.78125 22.152343-38.316406 22.152343-38.316406v-24.214844h-183.394531zm0 0" fill="#6a829a"/><path d="m383.03125 274.527344h-334.644531c-20.011719 0-36.234375-16.222656-36.234375-36.234375s16.222656-36.234375 36.234375-36.234375h334.644531c20.015625 0 36.238281 16.222656 36.238281 36.234375s-16.222656 36.234375-36.238281 36.234375zm0 0" fill="#a7b6c5"/><path d="m90.542969 238.292969c0-20.011719 16.222656-36.234375 36.238281-36.234375h-78.394531c-20.011719 0-36.234375 16.222656-36.234375 36.234375s16.222656 36.234375 36.234375 36.234375h78.394531c-20.011719 0-36.238281-16.222656-36.238281-36.234375zm0 0" fill="#889cb0"/><path d="m47.84375 276.59375c-19.625 16.703125-32.101562 33.957031-37.214844 51.554688-5.972656 20.566406-1.648437 41.503906 12.511719 60.546874 14.035156 18.871094 35.738281 30.21875 58.574219 30.21875 27.957031 0 60.652344-14.277343 97.265625-42.488281 27.457031-21.15625 46.988281-42.453125 47.808593-43.347656l-22.152343-20.230469c-.183594.203125-18.859375 20.523438-44.332031 40.09375-31.96875 24.5625-60.015626 36.976563-81.128907 35.910156-12.957031-.65625-23.414062-6.5625-31.957031-18.058593-8.578125-11.535157-11.125-22.738281-7.785156-34.257813 2.261718-7.804687 7.144531-15.910156 14.464844-24.15625" fill="#516980"/><path d="m241.609375 322.964844c0 14.300781-11.59375 25.898437-25.898437 25.898437-14.304688 0-25.902344-11.597656-25.902344-25.898437 0-14.304688 11.597656-25.902344 25.902344-25.902344 14.304687 0 25.898437 11.597656 25.898437 25.902344zm0 0" fill="#a7b6c5"/><path d="m185.792969 441.695312c0-9.078124-9.242188-16.433593-20.640625-16.433593-11.398438 0-20.640625 7.355469-20.640625 16.433593 0 9.078126 9.242187 16.4375 20.640625 16.4375 11.398437 0 20.640625-7.359374 20.640625-16.4375zm0 0" fill="#ff8de4"/><path d="m338.707031 441.695312c0-9.078124-9.242187-16.433593-20.640625-16.433593-11.398437 0-20.640625 7.355469-20.640625 16.433593 0 9.078126 9.242188 16.4375 20.640625 16.4375 11.398438 0 20.640625-7.359374 20.640625-16.4375zm0 0" fill="#ff8de4"/><path d="m295.914062 413.109375v12.453125c0 4.140625 3.359376 7.5 7.5 7.5 4.144532 0 7.5-3.359375 7.5-7.5v-12.453125c0-4.140625-3.355468-7.5-7.5-7.5-4.140624 0-7.5 3.359375-7.5 7.5zm0 0"/><path d="m172.304688 413.109375v12.453125c0 4.140625 3.355468 7.5 7.5 7.5 4.140624 0 7.5-3.359375 7.5-7.5v-12.453125c0-4.140625-3.359376-7.5-7.5-7.5-4.144532 0-7.5 3.359375-7.5 7.5zm0 0"/><path d="m246.730469 418.070312c-1.679688 2.464844-4.128907 2.761719-5.121094 2.761719s-3.484375-.269531-5.121094-2.761719c-2.277343-3.464843-6.925781-4.425781-10.386719-2.152343-3.460937 2.273437-4.425781 6.925781-2.152343 10.386719 3.921875 5.964843 10.523437 9.527343 17.660156 9.527343 7.140625 0 13.742187-3.5625 17.660156-9.527343 2.273438-3.460938 1.3125-8.113282-2.148437-10.386719-1.273438-.832031-6.882813-2.992188-10.390625 2.152343zm0 0"/><path d="m426.769531 238.292969c0-43.496094-44.867187-43.738281-44.867187-43.738281 1.84375-8.929688-.6875-18.589844-7.605469-25.507813l-21.964844-21.964844c-13.269531-12.058593-23.519531-8.023437-25.316406-7.667969-.863281-9.058593-3.1875-17.972656-6.910156-26.292968l-7.386719-16.515625c-1.511719-3.375-1.730469-7.175781-.628906-10.703125l9.394531-30c2.007813-.40625 13.316406-2.519532 16.632813-14.992188 5.125-19.261718-8.816407-25.820312-14.425782-27.578125l-39.332031-12.316406c-5.609375-1.757813-11.566406-1.222656-16.773437 1.503906-5.210938 2.722657-9.046876 7.3125-10.800782 12.921875-2.652344 8.464844.097656 17.347656 6.289063 22.933594l-9.101563 29.0625c-1.136718 3.632812-3.578125 6.683594-6.875 8.585938l-15.5625 8.988281c-18.230468 10.527343-31.734375 27.390625-38.023437 47.480469l-8.421875 26.886718-12.292969-12.292968c-5.292969-5.292969-12.328125-8.207032-19.808594-8.207032-7.484375 0-14.519531 2.914063-19.808593 8.207032l-21.964844 21.964843c-13.164063 11.574219-8.007813 23.652344-7.625 25.507813h-51.371094c-2.398438-4.917969-1.464844-10.949219 2.488281-14.902344l21.964844-21.964844c4-4 10.070313-4.964844 15.105469-2.40625 3.691406 1.878906 8.207031.410156 10.085937-3.28125 1.878907-3.691406.40625-8.207031-3.28125-10.085937-10.84375-5.515625-23.910156-3.441407-32.515625 5.167969l-21.964844 21.960937c-7.199218 7.199219-9.734374 17.609375-7.226562 27.058594-18.546875 5.066406-32.222656 22.054687-32.222656 42.1875 0 18.925781 12.085937 35.078125 28.945312 41.15625-15.402344 15.054687-25.546875 30.6875-30.171875 46.605469-6.652343 22.90625-1.917969 46.113281 13.699219 67.113281 2.46875 3.324219 7.167969 4.015625 10.492188 1.542969 3.324218-2.472657 4.015624-7.167969 1.542968-10.492188-12.707031-17.089844-16.625-35.753906-11.328125-53.980469 3.769531-12.980469 12.132813-25.980469 24.917969-38.777343l3.164062 18.703124c-6.785156 8.191407-11.382812 16.34375-13.683593 24.28125-3.984375 13.730469-.964844 27.464844 8.964843 40.820313 9.828126 13.214844 22.457032 21.074219 37.601563 21.074219 30.261719 0 54.054687-12.847656 86.078125-37.453125 7.414062-5.695313 14.882812-11.929688 22.296875-18.589844 2.636719 4.328125 6.238281 8.003906 10.496094 10.746094-7.699219 6.933593-15.496094 13.449219-23.265625 19.4375-35.246094 27.160156-66.433594 40.929687-92.6875 40.929687-11.453125 0-22.84375-3.222656-32.945313-9.324218-3.546875-2.144532-8.15625-1.003907-10.296875 2.542968-2.144531 3.542969-1.003906 8.152344 2.539063 10.296875 7.59375 4.585938 15.800781 7.84375 24.265625 9.695313l4.597656 27.175781c5.902344 34.882813 35.863281 60.199219 71.242188 60.199219h149.1875c35.378906 0 65.339843-25.316406 71.238281-60.199219l17.75-104.902344c.691406-4.082031-2.0625-7.953125-6.144531-8.644531-4.082032-.691406-7.957032 2.058594-8.648438 6.144531l-17.746094 104.902344c-4.675781 27.640625-28.414062 47.699219-56.449218 47.699219h-149.191407c-28.03125 0-51.773437-20.058594-56.449219-47.699219l-3.871093-22.902344c31.808593 0 64.832031-14.804687 102.765625-44.03125 10.234375-7.886719 20.503906-16.648437 30.539062-26.042969 20.753906.871094 35.011719-14.941406 35.011719-33.359374 0-18.417969-14.984375-33.398438-33.398437-33.398438-18.417969 0-33.726563 14.515625-33.363282 34.816406-8.828125 8.214844-17.765625 15.816406-26.613281 22.613282-30.53125 23.457031-56.886719 35.335937-76.179687 34.367187-2.285157-.117187-4.457032-.4375-6.542969-.945313l-16.644531-98.390624h318.683593l-5.285156 31.257812c-.691406 4.082031 2.058594 7.953125 6.140625 8.644531.425781.070313 6.96875 1.035157 8.648438-6.144531l5.816406-34.382812c20.632812-3.5 36.398437-21.492188 36.398437-43.105469zm-211.058593 66.269531c10.144531 0 18.398437 8.253906 18.398437 18.402344 0 10.144531-8.253906 18.398437-18.398437 18.398437-10.148438 0-18.402344-8.253906-18.402344-18.398437 0-10.144532 8.257812-18.402344 18.402344-18.402344zm126.015624-146.871094 21.964844 21.964844c4.027344 4.023438 4.847656 10.046875 2.484375 14.902344h-67.304687c-2.359375-4.855469-1.539063-10.878906 2.484375-14.902344l21.964843-21.964844c2.460938-2.457031 5.726563-3.8125 9.203126-3.8125 3.476562 0 6.746093 1.351563 9.203124 3.8125zm-52.238281 12.714844c-5.953125 6.789062-8.066406 15.789062-6.34375 24.148438h-93.351562l15.789062-50.421876zm-18.390625-150.484375c1.464844-5.722656 6.996094-5.152344 8.777344-4.589844l39.335938 12.316407c1.785156.558593 6.5 3.21875 4.589843 8.777343-1.90625 5.558594-6.992187 5.152344-8.777343 4.59375l-39.335938-12.316406c-3.683594-1.15625-5.550781-5.039063-4.589844-8.78125zm-32.058594 78.078125 15.5625-8.988281c6.5625-3.792969 11.421876-9.859375 13.683594-17.09375l8.503906-27.152344 29.570313 9.257813-8.582031 27.394531c-2.199219 7.023437-1.753906 14.59375 1.25 21.3125l7.390625 16.515625c3.949219 8.835937 5.988281 18.480468 5.984375 28.152344l-11.015625 11.015624-90.914063-28.472656c5.847656-13.375 15.78125-24.558594 28.566406-31.941406zm-117.21875 81.65625 21.964844-21.964844c2.457032-2.457031 5.726563-3.8125 9.203125-3.8125 3.476563 0 6.746094 1.351563 9.203125 3.8125l17.84375 17.839844-5.960937 19.027344h-54.742188c-.859375-1.757813-4.359375-8.679688 2.488281-14.902344zm-72.292968 151.855469 6.460937 38.207031c-20.585937-21.964844-7.703125-35.785156-6.460937-38.207031zm333.503906-64.484375h-334.644531c-15.84375 0-28.734375-12.890625-28.734375-28.734375s12.890625-28.734375 28.734375-28.734375h334.644531c15.847656 0 28.738281 12.890625 28.738281 28.734375s-12.890625 28.734375-28.738281 28.734375zm0 0"/></svg>